# xmcd
#
# Track frame offsets: 
#        150
#        22799
#        50212
#        74555
#        99646
#        127429
#        165265
#        181808
#        213278
#        248556
#        272244
#
# Disc length: 3982 seconds
#
# Revision: 0
# Processed by: cddbd v1.5.1PL0 Copyright (c) Steve Scherf et al.
# Submitted via: ExactAudioCopy v0.95a5
#
DISCID=9d0f8c0b
DTITLE=Alligator and the Bayou Boogie Band - Blues Collection
DYEAR=2003
DGENRE=Blues
TTITLE0=Po' Boy
TTITLE1=Walking in Blue
TTITLE2=Ragged Blanket
TTITLE3=Me and My Guitar
TTITLE4=She Took my Dog
TTITLE5=Somethings Going On
TTITLE6=Saw my Baby Comin'
TTITLE7=Oh Susanna
TTITLE8=Ugly Woman
TTITLE9=On With the Show
TTITLE10=Ain't No Sunshine
EXTD=
EXTT0=
EXTT1=
EXTT2=
EXTT3=
EXTT4=
EXTT5=
EXTT6=
EXTT7=
EXTT8=
EXTT9=
EXTT10=
PLAYORDER=
